PathFileType	4	(X/Y/Z)	/Users/itak/Documents/Research/Walk-IL/dataset/trc/00543_00009.trc
DataRate	CameraRate	NumFrames	NumMarkers	Units	OrigDataRate	OrigDataStartFrame	OrigNumFrames
100.000000	100.000000	4	53	mm	100.000000	648	741
Frame#	Time	RPSI			LPSI			L3			STRN			T10			C7			CLAV			RBAK			LBAK			LSHO			LUPA			LAEL			LAOL			LWTS			LWPS			LFRA			LIFD			LHPS			LHTS			RSHO			RUPA			RAEL			RAOL			RWTS			RWPS			RFRA			RIFD			RHTS			RHPS			RBHD			LFHD			RFHD			LBHD			LHIP			RHIP			RASI			LASI			LKNE			LTHI			LANK			LTIP			LTOE			LMT1			LMT5			LHEE			RKNE			RTHI			RANK			RTIP			RTOE			RMT1			RMT5			RHEE			
		X1	Y1	Z1	X2	Y2	Z2	X3	Y3	Z3	X4	Y4	Z4	X5	Y5	Z5	X6	Y6	Z6	X7	Y7	Z7	X8	Y8	Z8	X9	Y9	Z9	X10	Y10	Z10	X11	Y11	Z11	X12	Y12	Z12	X13	Y13	Z13	X14	Y14	Z14	X15	Y15	Z15	X16	Y16	Z16	X17	Y17	Z17	X18	Y18	Z18	X19	Y19	Z19	X20	Y20	Z20	X21	Y21	Z21	X22	Y22	Z22	X23	Y23	Z23	X24	Y24	Z24	X25	Y25	Z25	X26	Y26	Z26	X27	Y27	Z27	X28	Y28	Z28	X29	Y29	Z29	X30	Y30	Z30	X31	Y31	Z31	X32	Y32	Z32	X33	Y33	Z33	X34	Y34	Z34	X35	Y35	Z35	X36	Y36	Z36	X37	Y37	Z37	X38	Y38	Z38	X39	Y39	Z39	X40	Y40	Z40	X41	Y41	Z41	X42	Y42	Z42	X43	Y43	Z43	X44	Y44	Z44	X45	Y45	Z45	X46	Y46	Z46	X47	Y47	Z47	X48	Y48	Z48	X49	Y49	Z49	X50	Y50	Z50	X51	Y51	Z51	X52	Y52	Z52	X53	Y53	Z53	

649	6.48	862.4348754882812	1024.3466796875	268.9695434570312	866.1650390625	1024.7822265625	135.7731781005859	870.86572265625	1121.3466796875	193.6348114013672	1116.333862304688	1301.10986328125	195.7970733642578	870.7816162109375	1246.17919921875	186.6974487304688	926.9262084960938	1518.0283203125	199.2635650634766	1098.930297851562	1413.476928710938	196.5931549072266	848.36279296875	1393.660888671875	278.9211120605469	896.4805908203125	1466.062133789062	106.2633666992188	999.0628662109375	1489.050048828125	30.66261100769043	991.8514404296875	1362.67431640625	-50.50079345703125	1010.263854980469	1138.27978515625	-66.0081787109375	916.5039672851562	1133.986206054688	-26.01508140563965	1087.374877929688	892.6290283203125	-3.081728219985962	1052.2353515625	870.2299194335938	-79.81857299804688	1030.721801757812	1051.003173828125	-68.23435974121094	1079.057495117188	722.7289428710938	-5.45429515838623	1056.819458007812	810.1524047851562	-69.18931579589844	1102.835327148438	814.5867309570312	-18.87005233764648	976.9255981445312	1478.71923828125	356.80322265625	951.96875	1414.022827148438	421.5509643554688	934.6046142578125	1127.857299804688	471.732666015625	882.0910034179688	1111.408081054688	438.8240966796875	1065.444091796875	904.146484375	458.7812805175781	1011.47802734375	887.5486450195312	518.1824340820312	941.543212890625	1072.494873046875	482.072998046875	1074.324462890625	730.50927734375	474.2057495117188	1089.232543945312	813.2271728515625	481.0967407226562	1026.602783203125	813.0526123046875	521.4609985351562	994.4039916992188	1693.584594726562	271.5729064941406	1153.14208984375	1724.073974609375	140.8035736083984	1131.901245117188	1720.252197265625	283.8487548828125	1025.888427734375	1696.381713867188	109.4313812255859	994.5060424804688	940.8557739257812	6.799174785614014	984.7914428710938	958.4795532226562	395.7962951660156	1070.670166015625	985.9846801757812	338.49609375	1073.434814453125	966.9013061523438	62.94899368286133	1021.330139160156	497.2908935546875	87.75022125244141	1023.294799804688	661.78857421875	47.65244674682617	948.6941528320312	34.91070556640625	118.0545120239258	963.3411254882812	251.0408782958984	98.33924102783203	1158.018432617188	41.90900039672852	176.0156860351562	1085.028686523438	45.06560516357422	209.8691101074219	1069.995727539062	39.78922653198242	104.2734832763672	880.9833374023438	37.42252349853516	171.6718444824219	1066.8603515625	517.8172607421875	377.0475769042969	1040.322143554688	807.9505615234375	401.666259765625	910.7412719726562	55.91775131225586	382.9167175292969	1047.3359375	371.1424865722656	374.8595886230469	1126.906005859375	73.438720703125	357.4606018066406	1068.318237304688	65.62196350097656	311.7645568847656	1038.373901367188	56.63742446899414	411.0851135253906	859.3224487304688	50.82270812988281	324.0422058105469	
650	6.49	863.6900634765625	1024.3681640625	269.4158935546875	867.279296875	1024.839721679688	136.2971954345703	872.2196044921875	1121.329956054688	194.0219573974609	1117.609375	1301.06298828125	195.9530792236328	872.0586547851562	1246.253784179688	187.1895904541016	928.2793579101562	1518.038818359375	199.5082702636719	1100.135009765625	1413.412475585938	196.5935363769531	849.7401123046875	1393.74365234375	279.3408203125	897.711181640625	1466.05224609375	106.5609130859375	1000.150268554688	1488.919067382812	30.83238220214844	992.8187255859375	1362.44970703125	-50.21789932250977	1011.209411621094	1138.018920898438	-65.38173675537109	917.5345458984375	1133.818481445312	-25.24189376831055	1088.134765625	892.3076782226562	-2.324004888534546	1052.869873046875	869.8901977539062	-78.98811340332031	1031.597290039062	1050.7138671875	-67.53774261474609	1079.583129882812	722.4166259765625	-4.560604572296143	1057.396728515625	809.8199462890625	-68.34043884277344	1103.496704101562	814.2445068359375	-18.10611152648926	978.4404907226562	1478.745483398438	357.0229187011719	953.5247802734375	1414.108276367188	421.8236389160156	935.6513061523438	1127.962646484375	472.0766296386719	883.0778198242188	1111.749267578125	439.1531677246094	1065.06640625	903.3427734375	459.5057983398438	1010.992370605469	887.2848510742188	518.9649658203125	942.2763061523438	1072.618286132812	482.4668579101562	1072.5439453125	729.64892578125	475.1411437988281	1088.109252929688	812.2435913085938	481.9414367675781	1025.50048828125	812.5994873046875	522.317138671875	995.8826293945312	1693.630126953125	271.5647888183594	1154.619873046875	1723.94873046875	140.7598266601562	1133.378173828125	1720.20361328125	283.8198547363281	1027.3349609375	1696.3271484375	109.418342590332	995.5069580078125	940.9750366210938	7.193747043609619	985.9287109375	958.49951171875	396.1934814453125	1071.9990234375	985.9569702148438	338.7538757324219	1074.487426757812	966.822021484375	63.17134857177734	1021.815246582031	497.27490234375	87.84357452392578	1023.883422851562	661.7158203125	47.9561767578125	948.6665649414062	34.87372589111328	118.0878524780273	963.4996337890625	251.0686950683594	98.41837310791016	1158.007080078125	41.88419342041016	175.9966430664062	1084.998168945312	45.01980209350586	209.8918151855469	1070.011596679688	39.75627517700195	104.215705871582	881.0010375976562	37.44046020507812	171.7107543945312	1068.269653320312	517.7387084960938	377.1653137207031	1041.566772460938	807.9945068359375	402.06689453125	915.8199462890625	54.6871452331543	382.696533203125	1049.751098632812	370.9754638671875	374.8639526367188	1131.8935546875	74.09136962890625	356.9595947265625	1073.253295898438	65.83169555664062	311.3614501953125	1043.504516601562	56.51494216918945	410.6718444824219	864.365966796875	49.21965789794922	323.89794921875	
651	6.5	864.9024047851562	1024.375122070312	269.9168090820312	868.4144287109375	1024.882690429688	136.8592987060547	873.527099609375	1121.292236328125	194.4756927490234	1118.864990234375	1301.0234375	196.1484375	873.2872924804688	1246.298095703125	187.7545471191406	929.5897827148438	1518.033935546875	199.8052978515625	1101.318603515625	1413.3505859375	196.6401977539062	851.095947265625	1393.798217773438	279.8058776855469	898.9024047851562	1466.017944335938	106.9080123901367	1001.187194824219	1488.780029296875	31.04661178588867	993.7295532226562	1362.221435546875	-49.88584899902344	1012.145568847656	1137.7685546875	-64.74930572509766	918.5809326171875	1133.626586914062	-24.42756080627441	1089.0380859375	892.043212890625	-1.616686701774597	1053.603881835938	869.58984375	-78.17183685302734	1032.496459960938	1050.442749023438	-66.84537506103516	1080.35009765625	722.1412353515625	-3.711170673370361	1058.140014648438	809.5245361328125	-67.545166015625	1104.344848632812	813.9686279296875	-17.4127368927002	979.9232177734375	1478.763671875	357.2932434082031	955.0548095703125	1414.193115234375	422.1493835449219	936.6846923828125	1128.056030273438	472.4580993652344	884.0606079101562	1112.065795898438	439.5226745605469	1064.77001953125	902.5950317382812	460.2136535644531	1010.601135253906	887.044677734375	519.7313842773438	943.0366821289062	1072.753051757812	482.9027709960938	1070.916870117188	728.8545532226562	476.0340881347656	1087.112182617188	811.323974609375	482.742431640625	1024.531982421875	812.1693115234375	523.1505737304688	997.3230590820312	1693.668090820312	271.59228515625	1156.04345703125	1723.81640625	140.7232666015625	1134.82177734375	1720.15576171875	283.8080139160156	1028.714721679688	1696.254638671875	109.4477615356445	996.5581665039062	941.1104736328125	7.585290908813477	987.0758666992188	958.4700927734375	396.6091003417969	1073.311889648438	985.8843383789062	339.0549011230469	1075.542358398438	966.7382202148438	63.43379592895508	1022.307800292969	497.2629699707031	87.94773101806641	1024.480834960938	661.6495361328125	48.26922988891602	948.6461791992188	34.84298324584961	118.1164321899414	963.659912109375	251.0928039550781	98.50540924072266	1157.991455078125	41.85003662109375	175.9905548095703	1084.977783203125	44.98680877685547	209.9020538330078	1070.026000976562	39.71935653686523	104.161003112793	881.015869140625	37.45805358886719	171.7513275146484	1069.60009765625	517.6124267578125	377.2754821777344	1042.701049804688	807.99462890625	402.4971313476562	920.2899169921875	53.62363815307617	382.4385070800781	1051.971801757812	370.7808532714844	374.859130859375	1136.328002929688	74.55032348632812	356.6856994628906	1077.684692382812	65.93463134765625	311.1127624511719	1048.003173828125	56.3868293762207	410.3655700683594	868.8816528320312	47.81901931762695	323.6453552246094	
652	6.51	866.087890625	1024.374145507812	270.4688720703125	869.5779418945312	1024.918823242188	137.4462127685547	874.7979125976562	1121.233764648438	194.9949188232422	1120.105346679688	1300.985595703125	196.3846588134766	874.482421875	1246.307861328125	188.3793182373047	930.8607177734375	1518.01123046875	200.1534576416016	1102.50390625	1413.296020507812	196.7502899169922	852.4329223632812	1393.822875976562	280.3103332519531	900.0599975585938	1465.951538085938	107.3037567138672	1002.185607910156	1488.630126953125	31.30395889282227	994.593505859375	1361.988891601562	-49.50285339355469	1013.073852539062	1137.526977539062	-64.11738586425781	919.6358642578125	1133.41064453125	-23.5872974395752	1090.0859375	891.8343505859375	-0.9608942866325378	1054.441650390625	869.3248901367188	-77.37212371826172	1033.4208984375	1050.187744140625	-66.16487884521484	1081.361206054688	721.906494140625	-2.902676582336426	1059.048461914062	809.2625122070312	-66.79541778564453	1105.377319335938	813.7582397460938	-16.78043937683105	981.3731079101562	1478.778930664062	357.6156616210938	956.5527954101562	1414.277099609375	422.52783203125	937.6983642578125	1128.13720703125	472.874755859375	885.0379028320312	1112.35302734375	439.9241638183594	1064.568969726562	901.9105834960938	460.9088134765625	1010.311096191406	886.8250122070312	520.4807739257812	943.822265625	1072.892944335938	483.3802185058594	1069.473876953125	728.1282958984375	476.8920593261719	1086.26171875	810.48095703125	483.5050354003906	1023.714111328125	811.768798828125	523.9605712890625	998.7247314453125	1693.697265625	271.6586608886719	1157.412353515625	1723.6767578125	140.6948547363281	1136.23193359375	1720.109252929688	283.8137817382812	1030.031372070312	1696.163208007812	109.5162200927734	997.6583862304688	941.2342529296875	7.967393398284912	988.2561645507812	958.3855590820312	397.0328369140625	1074.61181640625	985.7605590820312	339.3961486816406	1076.594360351562	966.6494750976562	63.74330139160156	1022.796203613281	497.2537231445312	88.06622314453125	1025.093139648438	661.5938110351562	48.5689811706543	948.6354370117188	34.82439422607422	118.1369705200195	963.8215942382812	251.1179046630859	98.59883880615234	1157.97607421875	41.8112678527832	175.9881286621094	1084.966064453125	44.96434783935547	209.9022216796875	1070.038696289062	39.67957305908203	104.1102600097656	881.0258178710938	37.47407913208008	171.792724609375	1070.839721679688	517.4356079101562	377.3754272460938	1043.76171875	807.9352416992188	402.9467468261719	924.1982421875	52.68736267089844	382.14990234375	1054.009765625	370.5549621582031	374.8389892578125	1140.260498046875	74.75707244873047	356.6324768066406	1081.661376953125	65.88221740722656	311.0152587890625	1051.92138671875	56.19338226318359	410.1669006347656	872.9035034179688	46.59964752197266	323.2997436523438	
